<svg xmlns="http://www.w3.org/2000/svg" xmlns:xlink="http://www.w3.org/1999/xlink" version="1.1" id="Capa_1" x="0" y="0" viewBox="0 0 478.17 478.17" xml:space="preserve" enable-background="new 0 0 478.165 478.165">
  <path id="LinkedIn" d="M478.17 290.79v176.74H375.64V302.55c0-41.48-14.78-69.67-51.88-69.67 -28.37 0-45.11 19.09-52.58 37.46 -2.69 6.62-3.51 15.88-3.51 25.02v172.16H165.25c0 0 1.38-279.33 0-308.26h102.45v43.69c-0.14 0.36-0.44 0.66-0.58 1.06h0.58v-1.06c13.69-21 37.93-50.92 92.39-50.92C427.66 152.03 478.17 196.08 478.17 290.79zM58 10.63C22.95 10.63 0 33.62 0 63.95c0 29.51 22.28 53.28 56.68 53.28H57.3c35.82 0 58.02-23.77 58.02-53.28C114.62 33.62 93.12 10.63 58 10.63zM6.12 467.54h102.47V159.24H6.12V467.54z" fill="#fecf38"/>
</svg>