<svg xmlns="http://www.w3.org/2000/svg" xmlns:xlink="http://www.w3.org/1999/xlink" version="1.1" id="Capa_1" x="0" y="0" width="31.67" height="31.67" viewBox="0 0 31.67 31.67" xml:space="preserve" enable-background="new 0 0 31.665 31.665">
  <path d="M16.88 0.42c-0.85-0.56-1.97-0.55-2.81 0.03L1.49 9.21c-0.67 0.47-1.07 1.23-1.07 2.05v9.44c0 0.84 0.42 1.62 1.12 2.09l12.79 8.46c0.84 0.55 1.92 0.55 2.76 0l13.04-8.62c0.7-0.46 1.12-1.25 1.12-2.09v-9.28c0-0.84-0.42-1.62-1.12-2.08L16.88 0.42zM26.62 10.65l-4.82 3.24 -4.52-3.29L17.25 4.13 26.62 10.65zM13.98 4.13v6.33l-4.63 3.24 -4.62-3.1L13.98 4.13zM3.46 13.72l2.99 2 -2.99 2.09V13.72zM14.06 27.22l-9.33-6.26 4.66-3.26 4.67 3.13V27.22zM12.29 15.67l3.02-2.11 3.52 2.31 -3.12 2.1L12.29 15.67zM17.35 27.22V20.83l4.46-2.99 4.81 3.16L17.35 27.22zM27.95 17.93l-3.17-2.08 3.17-2.12V17.93z" fill="#fecf38"/>
</svg>